<svg viewBox="0 0 14 14" xmlns="http://www.w3.org/2000/svg"><path d="m8.3502546 8.976345h.9532486v-3.95265h-.9532486zm-1.6795116-1.12449c0 .14107-.1142905.25535-.2551504.25535h-.5544433c-.1414597 0-.2555463-.11428-.2555463-.25535v-1.5948h-.9530567v1.67434c0 .68431.4377658 1.04494 1.0851121 1.04494h.9330726v-.005c.5962108 0 .9532487-.42418.9532487-1.03995v-1.67434h-.9532367v1.5948zm5.376224-1.5948v1.5948c0 .14107-.114278.25535-.25515.25535h-.554455c-.141256 0-.255343-.11428-.255343-.25535v-1.5948h-.953249v1.67434c0 .68431.437766 1.04494 1.085125 1.04494h.93306v-.005c.596211.00001.953045-.42417.953045-1.03994v-1.67434zm-9.1606578 0h-.6111927c-.2145826 0-.3220838.0578-.3220838.0578v-1.2912h-.9530327v3.95265h.9530447v-1.59501c0-.14106.1142905-.25535.2553424-.25535h.5546472c.1410519 0 .2551505.11429.2551505.25535v1.59501h.9532486v-1.71848c0-.72269-.4819202-1.00081-1.0851242-1.00081z"/></svg>