<svg viewBox="0 0 1024 1176.463" xmlns="http://www.w3.org/2000/svg"><path d="M126.592 450.098c.766.06 1.66.095 2.56.095 11.38 0 21.475-5.505 27.765-13.998l.066-.093c6.3-11.056 10.013-24.292 10.013-38.396 0-2.053-.08-4.087-.233-6.1l.016.266c.144-1.812.227-3.923.227-6.053 0-14.128-3.64-27.405-10.033-38.946l.21.413c-6.327-8.596-16.406-14.11-27.773-14.11-.99 0-1.974.04-2.945.123l.127-.01h-.058c-13.306 0-25.75 3.69-36.367 10.098l.316-.177v96.93c10.05 6.254 22.25 9.962 35.314 9.962.28 0 .56-.002.838-.005h-.043zM45.894 562.465c-.255.022-.552.035-.852.035-2.315 0-4.452-.764-6.172-2.054l.027.02c-1.402-1.655-2.255-3.813-2.255-6.17 0-.363.02-.72.06-1.072l-.005.043v-245.77c-.037-.313-.058-.677-.058-1.047 0-2.352.853-4.504 2.268-6.164l-.01.013c1.67-1.273 3.786-2.04 6.08-2.04.323 0 .642.016.957.046l-.04-.003H72.45c.26-.026.566-.04.874-.04 4.77 0 8.72 3.495 9.435 8.064l.006.054 2.56 9.6c7.473-7.136 16.35-12.878 26.163-16.762l.548-.192c9.425-3.943 20.375-6.248 31.86-6.278h.012c.808-.034 1.757-.054 2.71-.054 21.788 0 41.197 10.19 53.723 26.06l.11.146c13.123 17.94 20.997 40.438 20.997 64.776 0 2.112-.06 4.21-.176 6.293l.013-.29c.02.85.032 1.848.032 2.85 0 18.274-3.808 35.66-10.672 51.405l.323-.83c-6.175 14.358-15.754 26.25-27.754 35.025l-.237.165c-10.992 7.713-24.647 12.327-39.38 12.327-.41 0-.82-.004-1.23-.01h.06-.404c-10.156 0-19.9-1.758-28.948-4.987l.6.187c-8.942-3.07-16.658-7.575-23.28-13.31l.088.074v80.692c.032.307.05.662.05 1.023 0 2.328-.77 4.476-2.068 6.203l.02-.026c-1.702 1.28-3.85 2.05-6.177 2.05-.36 0-.715-.018-1.065-.054l.044.004zm220.697-75.898c-.258.025-.558.04-.862.04-2.357 0-4.517-.847-6.192-2.25l.015.01c-1.387-1.675-2.23-3.848-2.23-6.217 0-.275.01-.547.034-.816l-.002.035V307.497c-.033-.3-.05-.645-.05-.995 0-2.368.85-4.536 2.262-6.217l-.012.015c1.684-1.273 3.814-2.04 6.123-2.04.323 0 .642.015.957.044l-.04-.003h26.512c.27-.026.58-.04.897-.04 4.766 0 8.713 3.497 9.415 8.066l.007.053 4.8 19.874c7.805-9.12 16.99-16.778 27.29-22.725l.502-.27c7.993-4.282 17.486-6.798 27.566-6.798H369.04c.315-.032.68-.05 1.048-.05 2.36 0 4.538.77 6.3 2.07l-.03-.02c1.425 1.654 2.293 3.822 2.293 6.193 0 .354-.018.704-.056 1.05l.004-.044v30.913c.024.26.037.564.037.87 0 2.33-.78 4.477-2.095 6.194l.018-.025c-1.667 1.4-3.836 2.25-6.203 2.25-.35 0-.696-.018-1.037-.054l.042.004q-3.328-.058-6.638-.4-5.148-.404-10.317-.36c-7.398.162-14.5 1.027-21.363 2.534l.73-.134c-7.808 1.46-14.712 3.564-21.268 6.332l.673-.252v123.84c.02.24.032.52.032.804 0 2.336-.78 4.49-2.09 6.22l.018-.027c-1.646 1.402-3.798 2.256-6.15 2.256-.37 0-.733-.02-1.092-.062l.044.004zm147.2 0c-.417.078-.898.123-1.39.123-4.382 0-7.935-3.553-7.935-7.936 0-.503.047-.996.136-1.473l-.007.05V307.5c-.037-.316-.058-.68-.058-1.05 0-2.352.853-4.503 2.266-6.162l-.01.013c1.678-1.27 3.8-2.035 6.1-2.035.317 0 .63.014.937.043l-.04-.003h35.392c.548-.142 1.18-.224 1.83-.224 4.19 0 7.59 3.4 7.59 7.592 0 .65-.082 1.28-.235 1.883l.01-.053V477.33c.023.256.036.554.036.855 0 2.328-.763 4.478-2.053 6.212l.02-.028c-1.666 1.4-3.835 2.25-6.202 2.25-.35 0-.697-.02-1.037-.056l.042.004zm17.715-217.418c-.47.024-1.02.038-1.576.038-8.006 0-15.325-2.936-20.94-7.79l.042.033c-5.245-4.924-8.512-11.902-8.512-19.644 0-.474.012-.945.036-1.413l-.003.066c-.022-.405-.034-.877-.034-1.352 0-7.753 3.265-14.743 8.497-19.67l.014-.013c6.135-4.813 13.965-7.718 22.474-7.718s16.34 2.905 22.553 7.778l-.08-.06c5.245 4.942 8.51 11.935 8.51 19.69 0 .472-.01.942-.035 1.41l.003-.066c.02.394.032.857.032 1.323 0 7.748-3.266 14.734-8.497 19.655l-.014.013c-5.574 4.82-12.893 7.758-20.898 7.758-.554 0-1.105-.014-1.653-.042l.077.003zm81.735 217.417c-.26.025-.56.04-.863.04-2.357 0-4.517-.847-6.192-2.25l.015.01c-1.388-1.676-2.23-3.848-2.23-6.218 0-.275.01-.547.032-.816l-.002.035V307.497c-.033-.298-.05-.643-.05-.993 0-2.37.85-4.54 2.264-6.22l-.012.015c1.684-1.274 3.814-2.04 6.123-2.04.323 0 .642.014.957.043l-.04-.003h26.512c.27-.027.58-.042.897-.042 4.766 0 8.713 3.498 9.415 8.067l.007.053 2.96 9.957c10.14-7.082 21.752-13.228 34.098-17.875l1.09-.36c9.53-3.396 20.52-5.358 31.97-5.358h.276-.014c1.335-.128 2.886-.2 4.454-.2 17.843 0 33.483 9.43 42.207 23.58l.123.213c10.192-7.128 21.885-13.233 34.342-17.743l1.05-.332c10.157-3.498 21.86-5.518 34.036-5.518h.247-.012c.988-.065 2.143-.102 3.306-.102 14.2 0 27.113 5.517 36.71 14.524l-.028-.027c8.84 9.683 14.256 22.624 14.256 36.83 0 1.168-.037 2.327-.11 3.476l.01-.157V477.37c.022.254.034.55.034.85 0 2.316-.764 4.453-2.054 6.174l.02-.027c-1.647 1.403-3.8 2.257-6.15 2.257-.37 0-.735-.02-1.093-.062l.043.004H746.45c-.417.078-.9.123-1.39.123-4.38 0-7.93-3.55-7.93-7.93 0-.492.045-.973.13-1.44l-.007.05V359.083c0-16.716-7.518-25.073-22.474-25.073-14.666.172-28.467 3.698-40.727 9.845l.538-.244v133.76c.024.256.036.553.036.853 0 2.315-.764 4.452-2.054 6.173l.02-.027c-1.648 1.402-3.8 2.256-6.152 2.256-.37 0-.733-.02-1.09-.062l.043.004h-35.348c-.26.025-.56.04-.863.04-2.357 0-4.517-.847-6.192-2.25l.015.01c-1.388-1.676-2.23-3.848-2.23-6.218 0-.274.01-.546.032-.815l-.002.035V359.083q0-25.073-22.473-25.073c-14.81.088-28.745 3.76-41.003 10.192l.49-.235V477.37c.024.26.037.56.037.865 0 2.317-.78 4.452-2.094 6.156l.017-.023c-1.647 1.403-3.8 2.257-6.15 2.257-.37 0-.734-.02-1.092-.062l.044.004zM906.726 376.4c1.127.09 2.44.14 3.765.14 8.604 0 16.7-2.168 23.774-5.99l-.265.13c5.175-3.576 8.523-9.477 8.523-16.16 0-.477-.017-.95-.05-1.417l.004.063q0-23.213-27.592-23.193-35.392 0-40.948 43.468c9.377 1.888 20.155 2.967 31.187 2.967.564 0 1.127-.003 1.69-.008h-.086zm12.157 115.686c-1.834.128-3.974.2-6.13.2-24.782 0-47.32-9.6-64.103-25.283l.054.05c-15.354-17.292-24.732-40.19-24.732-65.28 0-2.314.08-4.61.237-6.886l-.018.307c-.114-1.85-.18-4.012-.18-6.19 0-26.368 9.55-50.505 25.38-69.14l-.127.152c16.37-16.912 39.28-27.41 64.64-27.41 1.75 0 3.492.05 5.22.15l-.24-.012c1.43-.092 3.102-.144 4.786-.144 18.487 0 35.502 6.3 49.015 16.87l-.175-.13c11.902 10.19 19.397 25.23 19.397 42.02 0 .762-.015 1.52-.046 2.275l.004-.108c.044.762.07 1.654.07 2.552 0 16.275-8.204 30.635-20.7 39.17l-.164.105c-15.583 9.073-34.297 14.428-54.263 14.428-2.505 0-4.99-.084-7.452-.25l.334.018c-.677.012-1.475.02-2.274.02-12.137 0-23.928-1.48-35.203-4.268l1.004.21c.082 13.84 5.772 26.337 14.91 35.344l.006.006c9.474 6.805 21.307 10.883 34.092 10.883 1.554 0 3.095-.06 4.62-.18l-.203.014h.262c6.986 0 13.86-.48 20.592-1.408l-.78.088c11.502-1.76 21.404-3.948 31.064-6.706l-1.752.428c.548-.095 1.184-.153 1.832-.16h.007c4.16 0 6.24 2.8 6.24 8.477v16.955c.034.39.053.84.053 1.297 0 2.545-.61 4.947-1.695 7.068l.04-.088c-1.675 1.967-3.874 3.442-6.38 4.213l-.097.026c-16.68 6.535-35.99 10.32-56.188 10.32-.336 0-.672 0-1.008-.002h.05zM899.61 693.548c-108.25 74.367-242.133 118.77-386.387 118.77-.767 0-1.535 0-2.3-.004h.118c-1.055.006-2.304.01-3.555.01-181.5 0-346.942-68.745-471.712-181.617l.605.54c-9.837-8.878-1.04-20.993 10.797-14.117 136.18 79.234 299.714 126.004 474.17 126.004h.773-.04c130.96-.663 255.394-27.864 368.437-76.492l-6.142 2.35c17.755-7.517 32.63 11.716 15.236 24.553zm43.746-49.908c-13.436-17.196-88.854-8.158-122.724-4.12-10.277 1.24-11.84-7.717-2.6-14.235C846.59 607.038 881.415 596.2 918.77 596.2c24.99 0 48.848 4.852 70.683 13.662l-1.27-.452c.86 6.728 1.35 14.512 1.35 22.41 0 54.506-23.35 103.558-60.594 137.698l-.14.125c-8.678 7.198-16.915 3.36-13.076-6.198 12.676-31.67 41.068-102.61 27.592-119.808z"/></svg>