<svg viewBox="0 0 48 48" xmlns="http://www.w3.org/2000/svg"><g fill="none" stroke="#000" stroke-linecap="round" stroke-linejoin="round"><path d="m40.5 5.5h-33c-1.1046 0-2 .8954-2 2v33c0 1.1046.8954 2 2 2h33c1.1046 0 2-.8954 2-2v-33c0-1.1046-.8954-2-2-2z"/><path d="m5.5 7.5v3.2305c0 4.3342 2.7921 8.1751 6.915 9.5122l23.1701 7.5146c4.1228 1.3371 6.915 5.178 6.915 9.5122v3.2305"/><path d="m24.8162 17v-7l4.6375 7v-7"/><path d="m36.0369 10-2.3188 3.5-2.3187-3.5"/><path d="m33.7181 17v-3.5"/><path d="m12.1018 16.233c.4292.5588.9675.767 1.7163.767h1.0363c.9644 0 1.7462-.7818 1.7462-1.7462v-.0075c0-.9644-.7818-1.7462-1.7462-1.7462h-1.1432c-.9655 0-1.7481-.7827-1.7481-1.7481 0-.9675.7843-1.7519 1.7519-1.7519h1.0307c.7488 0 1.2871.2082 1.7163.767"/><rect height="7" rx="2.3187" width="4.6375" x="18.2331" y="10"/><path d="m30.6111 31.2489-2.7362 7.2511-2.7363-7.2511"/></g><circle cx="22.1872" cy="27.8969" r=".75"/><path d="m22.1872 31.2489v7.2511" fill="none" stroke="#000" stroke-linecap="round" stroke-linejoin="round"/><path d="m17.3889 27.5549v9.577c0 .7556.6125 1.3681 1.3681 1.3681h.4104" fill="none" stroke="#000" stroke-linecap="round" stroke-linejoin="round"/></svg>